<svg version="1.1" id="Layer_1" xmlns="http://www.w3.org/2000/svg" xmlns:xlink="http://www.w3.org/1999/xlink" x="0px" y="0px"
	 width="100%" viewBox="0 0 1024 1024" enable-background="new 0 0 1024 1024" xml:space="preserve">
<path fill="#000000" opacity="1.000000" stroke="none" 
	d="
M454.624207,812.110107 
	C448.004059,777.614014 469.387421,746.666077 501.326721,739.276306 
	C504.799896,738.472778 505.895813,737.225952 505.889435,733.711243 
	C505.793335,680.716187 505.790405,627.720764 505.913116,574.725769 
	C505.922119,570.848877 504.654663,569.144897 500.927673,568.181885 
	C491.785645,565.819763 483.409729,561.739807 476.431641,555.247253 
	C473.898438,552.890381 472.007812,553.307190 469.560455,555.354736 
	C433.403046,585.605347 396.423859,614.844482 359.750061,644.459717 
	C351.456970,651.156616 343.158844,657.853333 335.053406,664.773071 
	C332.378906,667.056335 330.787476,667.199402 328.760071,664.131165 
	C326.842560,661.229187 324.555908,658.532227 322.172058,655.988403 
	C319.828979,653.487976 320.419922,651.887817 322.890930,649.904541 
	C347.056030,630.509033 371.180664,611.062866 395.262970,591.564636 
	C415.719238,575.002136 436.042480,558.274719 456.579224,541.813171 
	C460.218872,538.895752 461.126190,536.408142 458.719666,532.230042 
	C457.007233,529.256897 455.731506,525.775879 455.294220,522.388184 
	C454.718567,517.928650 452.486298,517.250183 448.577026,517.263062 
	C409.747620,517.390930 370.917389,517.423340 332.088165,517.282166 
	C327.691498,517.266174 325.814667,518.494202 324.546112,522.937256 
	C316.592590,550.794250 296.325500,567.414734 267.756989,570.064453 
	C243.058762,572.355286 217.246750,555.541870 207.328705,530.702698 
	C192.834091,494.401794 217.094147,452.481262 255.791992,446.959808 
	C286.071198,442.639496 314.425507,460.758820 323.426331,490.180298 
	C326.080719,498.856873 326.080688,498.820984 335.136627,498.814911 
	C372.633301,498.789795 410.130280,498.709991 447.626190,498.875610 
	C452.402924,498.896698 455.059937,497.846191 455.613647,492.680878 
	C456.078156,488.347870 458.260956,484.425293 460.234863,480.598969 
	C461.771027,477.621246 461.187897,475.922089 458.718628,473.868042 
	C438.607452,457.138489 418.605835,440.277313 398.550232,423.480804 
	C373.896179,402.833099 349.250763,382.174896 324.516785,361.623260 
	C321.773315,359.343750 321.668091,357.710419 324.099976,355.199982 
	C326.404694,352.820862 328.481262,350.157288 330.290955,347.379578 
	C332.178528,344.482330 333.856354,344.637024 336.294098,346.686584 
	C352.488556,360.302246 368.769653,373.814850 384.985931,387.404633 
	C411.801605,409.877045 438.556702,432.421722 465.408813,454.850403 
	C473.715729,461.788910 473.814819,461.650299 482.778961,455.923767 
	C488.590607,452.211151 494.881042,449.525177 501.608459,448.127838 
	C504.578003,447.511017 505.849396,446.477753 505.845917,443.293304 
	C505.790558,392.631226 505.779022,341.968872 505.943451,291.307190 
	C505.957947,286.837799 503.417603,286.311249 500.195007,285.410675 
	C476.228394,278.713348 460.408051,263.683228 454.496704,239.259857 
	C446.260834,205.232666 470.299744,170.032944 505.085968,164.677170 
	C536.067688,159.907181 564.849060,177.849106 573.697510,207.448761 
	C582.582520,237.170502 568.420532,269.053619 540.477478,281.995575 
	C537.326721,283.454834 533.970947,284.782837 530.575012,285.325653 
	C525.930786,286.067932 524.846985,288.391022 524.882812,292.798676 
	C525.085754,317.794922 525.001587,342.793488 525.016357,367.791260 
	C525.030823,392.289032 525.142090,416.787476 524.973145,441.283966 
	C524.943054,445.637939 525.991089,447.780304 530.592346,448.799591 
	C540.989929,451.102783 550.174561,456.143890 558.634827,463.490631 
	C565.855835,457.523102 572.970886,451.580200 580.152405,445.718750 
	C615.515015,416.856049 650.863037,387.975250 686.328735,359.239685 
	C689.248535,356.873993 689.584778,355.201080 687.929077,351.847992 
	C668.937500,313.388763 695.345825,267.400299 738.231934,263.563446 
	C776.725403,260.119629 806.970093,290.298004 805.868774,326.902679 
	C805.128845,351.495605 792.926392,370.263702 770.586121,380.935516 
	C748.430298,391.519165 726.745850,389.198883 707.073303,374.227844 
	C702.997864,371.126404 700.765381,371.797974 697.380371,374.567383 
	C662.956360,402.730865 628.456604,430.801697 593.954712,458.869781 
	C587.106506,464.441010 580.225403,469.976837 573.222351,475.350220 
	C570.669434,477.309113 570.050964,479.093811 571.580078,482.079773 
	C573.701294,486.221924 575.473083,490.572418 576.219299,495.228912 
	C576.640198,497.855591 578.161072,498.928558 580.721924,498.824127 
	C581.886230,498.776611 583.054565,498.835327 584.221069,498.835114 
	C632.383484,498.826477 680.545959,498.767181 728.708008,498.894653 
	C732.848145,498.905640 734.750488,497.702820 736.236145,493.687927 
	C743.008240,475.386932 759.156555,464.953278 778.560059,465.799133 
	C795.218384,466.525269 810.949280,479.456543 815.957092,496.540527 
	C822.070801,517.397461 810.351562,540.315613 789.894897,547.507996 
	C768.353455,555.081604 744.821533,544.426636 736.597473,523.057129 
	C735.162720,519.329041 733.470520,517.952515 729.467041,517.944702 
	C680.810242,517.849304 632.153320,517.639954 583.497864,517.270020 
	C578.880676,517.234924 576.491211,518.298035 575.695129,523.217468 
	C575.067688,527.094177 573.392090,530.865723 571.758362,534.493225 
	C570.591675,537.083496 570.937012,538.696228 573.105286,540.501831 
	C614.199829,574.723572 655.241943,609.008362 696.313660,643.257568 
	C702.838135,648.698242 702.880005,648.648010 710.133972,644.097229 
	C749.471313,619.419067 799.506165,643.120361 805.314209,689.183655 
	C809.482971,722.245850 785.046936,753.214844 752.065979,757.330872 
	C720.413208,761.281067 686.456543,739.300293 682.579163,702.074646 
	C681.294312,689.738953 683.457703,678.192871 689.106750,667.312378 
	C690.661865,664.317200 690.276917,662.777161 687.746155,660.672424 
	C647.393311,627.112000 607.121704,593.453857 566.835266,559.813599 
	C558.854370,553.149292 558.857971,553.135620 550.516235,558.957581 
	C544.150146,563.400757 537.148621,566.471375 529.608643,568.166992 
	C526.227417,568.927368 524.992188,570.568787 524.996155,574.011475 
	C525.057373,627.173218 525.053101,680.335144 524.953735,733.496765 
	C524.946899,737.179565 526.258301,738.563904 529.835083,739.503845 
	C559.736267,747.361267 576.446533,772.160706 576.980896,799.899963 
	C577.612671,832.688843 549.198364,860.469604 516.443787,861.545898 
	C487.121124,862.509277 460.817810,840.627136 454.624207,812.110107 
M544.021912,831.535095 
	C553.727661,822.307190 558.531555,811.073547 558.046021,797.611633 
	C557.405212,779.841614 548.761108,767.315979 532.729614,760.202515 
	C516.282410,752.904602 500.535309,755.210022 486.996765,766.841125 
	C468.222626,782.970093 467.064301,810.537048 483.615570,829.461304 
	C498.367981,846.328674 525.065552,847.470337 544.021912,831.535095 
M757.523682,654.889343 
	C753.208740,653.440491 748.753662,653.001648 744.230469,653.016052 
	C724.967041,653.077393 709.540100,664.042725 703.142761,682.231750 
	C697.351685,698.697021 703.133118,718.692444 716.856750,729.662659 
	C731.114990,741.060364 751.930603,742.363892 767.365356,732.273987 
	C782.092468,722.646667 788.679138,708.504761 786.742004,691.194519 
	C784.776550,673.630798 774.782471,661.622314 757.523682,654.889343 
M737.132935,367.659149 
	C773.210205,371.989777 796.024170,338.559784 783.769287,308.269257 
	C776.776733,290.985626 759.271484,280.673248 739.129578,282.350891 
	C721.597961,283.811157 705.920044,297.483307 702.101257,314.641968 
	C696.595642,339.380066 710.671204,361.145874 737.132935,367.659149 
M556.667542,494.904602 
	C551.334106,479.528748 540.877441,469.868103 524.946716,466.072205 
	C501.441711,460.471558 478.239380,476.123413 473.206757,501.120361 
	C468.762695,523.193970 485.399963,547.272949 507.981903,550.464233 
	C540.273926,555.027649 566.171265,527.033813 556.667542,494.904602 
M472.312775,220.020401 
	C469.147491,251.116241 494.710846,268.911896 515.562256,268.092316 
	C537.465942,267.231445 554.951294,251.934189 557.314819,228.849701 
	C559.094116,211.472153 549.943787,190.842392 526.349670,184.378387 
	C500.433136,177.278152 476.694397,194.332596 472.312775,220.020401 
M225.562714,524.839478 
	C226.150345,526.033569 226.698364,527.249146 227.331558,528.418579 
	C236.323486,545.025696 256.877441,556.379944 279.956879,547.850159 
	C298.724091,540.914062 310.725647,519.838013 306.639526,500.113129 
	C301.425629,474.944153 277.115906,460.298553 252.418182,467.446960 
	C228.442734,474.386292 216.104156,500.175720 225.562714,524.839478 
M790.479126,489.973999 
	C788.801636,488.902435 787.210449,487.653534 785.432434,486.788666 
	C775.386230,481.901917 764.913940,484.353699 757.645142,493.194427 
	C751.138489,501.108124 750.927246,513.312500 757.155334,521.493591 
	C763.869446,530.313110 774.825623,533.270447 784.781555,528.950623 
	C800.576233,522.097351 803.517029,503.924744 790.479126,489.973999 
z"/>
<path fill="#000000" opacity="1.000000" stroke="none" 
	d="
M266.414703,672.774658 
	C270.384247,661.024597 277.722046,653.300110 289.566162,650.255981 
	C302.859131,646.839478 318.374268,653.395447 325.661865,665.517456 
	C332.320770,676.593750 330.433533,693.021240 321.331757,703.208740 
	C311.338776,714.393677 296.821625,717.059814 282.619629,710.318481 
	C270.674774,704.648438 263.477936,690.344543 265.657837,676.590637 
	C265.839813,675.442505 266.074982,674.302734 266.414703,672.774658 
z"/>
<path fill="#000000" opacity="1.000000" stroke="none" 
	d="
M266.948975,337.691223 
	C262.273438,320.836670 271.317963,303.815582 287.626678,298.151825 
	C302.516602,292.980804 320.090149,301.155762 326.818420,315.408386 
	C336.681030,336.300476 322.758728,353.674500 308.654968,358.952515 
	C292.231293,365.098785 273.207245,355.647949 266.948975,337.691223 
z"/>
</svg>